<?xml version="1.0" encoding="utf-8"?>
<!-- Generator: Adobe Illustrator 16.0.0, SVG Export Plug-In . SVG Version: 6.00 Build 0)  -->
<!DOCTYPE svg PUBLIC "-//W3C//DTD SVG 1.1//EN" "http://www.w3.org/Graphics/SVG/1.1/DTD/svg11.dtd">
<svg version="1.1" id="Layer_1" xmlns="http://www.w3.org/2000/svg" xmlns:xlink="http://www.w3.org/1999/xlink" x="0px" y="0px"
	 width="700px" height="700px" viewBox="0 0 700 700" enable-background="new 0 0 700 700" xml:space="preserve">
<g>
	<g>
		<g>
			<radialGradient id="SVGID_1_" cx="339.75" cy="327.6001" r="496.55" gradientUnits="userSpaceOnUse">
				<stop  offset="0" style="stop-color:#263643"/>
				<stop  offset="1" style="stop-color:#10151B"/>
				<stop  offset="1" style="stop-color:#25363A"/>
			</radialGradient>
			<rect x="0" y="-1.3" fill-rule="evenodd" clip-rule="evenodd" fill="url(#SVGID_1_)" width="700.1" height="623.2"/>
		</g>
	</g>
	<g>
		<linearGradient id="SVGID_2_" gradientUnits="userSpaceOnUse" x1="350.0039" y1="702.3623" x2="350.068" y2="610.9373">
			<stop  offset="0" style="stop-color:#855727"/>
			<stop  offset="1" style="stop-color:#472913"/>
		</linearGradient>
		<rect x="0" y="614.2" fill-rule="evenodd" clip-rule="evenodd" fill="url(#SVGID_2_)" width="700.1" height="117"/>
	</g>
	<g>
		<g>
			
				<line fill-rule="evenodd" clip-rule="evenodd" fill="none" stroke="#8A5928" stroke-linecap="round" stroke-linejoin="round" stroke-miterlimit="3" x1="-2" y1="700" x2="701.1" y2="700"/>
			
				<line fill-rule="evenodd" clip-rule="evenodd" fill="none" stroke="#714820" stroke-linecap="round" stroke-linejoin="round" stroke-miterlimit="3" x1="-2" y1="665" x2="701.1" y2="665"/>
			
				<line fill-rule="evenodd" clip-rule="evenodd" fill="none" stroke="#6A421E" stroke-linecap="round" stroke-linejoin="round" stroke-miterlimit="3" x1="-2" y1="666.2" x2="701.1" y2="666.2"/>
			
				<line fill-rule="evenodd" clip-rule="evenodd" fill="none" stroke="#5E3A1A" stroke-linecap="round" stroke-linejoin="round" stroke-miterlimit="3" x1="-2" y1="639.2" x2="701.1" y2="639.2"/>
			
				<line fill-rule="evenodd" clip-rule="evenodd" fill="none" stroke="#553517" stroke-linecap="round" stroke-linejoin="round" stroke-miterlimit="3" x1="-2" y1="640.4" x2="701.1" y2="640.4"/>
			
				<line fill-rule="evenodd" clip-rule="evenodd" fill="none" stroke="#553217" stroke-linecap="round" stroke-linejoin="round" stroke-miterlimit="3" x1="-2" y1="624.2" x2="701.1" y2="624.2"/>
			
				<line fill-rule="evenodd" clip-rule="evenodd" fill="none" stroke="#4C2C14" stroke-linecap="round" stroke-linejoin="round" stroke-miterlimit="3" x1="-2" y1="625.4" x2="701.1" y2="625.4"/>
		</g>
	</g>
	<g>
		
			<path fill-rule="evenodd" clip-rule="evenodd" fill="none" stroke="#D6D6D6" stroke-linecap="round" stroke-linejoin="round" stroke-miterlimit="3" stroke-opacity="4.705882e-002" d="
			M672.3,614.3l28.8,12.6 M269.8,614.3l-64.6,117.8 M300.8,614.3l-38.9,117.8 M177,614.3L35.1,732.2 M238.9,614.3l-90.4,117.8
			 M208,614.3L91.8,732.2 M393.7,614.3l38.3,117.8 M362.7,614.3l12.6,117.8 M486.6,614.3L602,732.2 M455.6,614.3l89.8,117.8
			 M424.6,614.3l64.1,117.8 M331.7,614.3l-13.2,117.8 M641.3,614.3l59.8,28.9 M610.5,614.3l90.6,49 M579.5,614.3l121.6,74.4
			 M548.5,614.3L701.1,722 M517.5,614.3l141.2,117.8 M146,614.3L-2,718.5 M84,614.3L-2,660.7 M115,614.3L-2,685.7 M53,614.3
			L-2,640.9 M22.1,614.3L-2,624.8"/>
	</g>
	<g>
		
			<path fill-rule="evenodd" clip-rule="evenodd" fill="none" stroke="#000000" stroke-linecap="round" stroke-linejoin="round" stroke-miterlimit="3" stroke-opacity="9.803922e-002" d="
			M671.1,614.3l30,13.1 M268.6,614.3l-64.7,117.8 M299.5,614.3l-38.9,117.8 M175.7,614.3L33.9,732.2 M237.6,614.3l-90.3,117.8
			 M206.7,614.3L90.5,732.2 M392.4,614.3l38.3,117.8 M361.5,614.3L374,732.2 M454.3,614.3l89.8,117.8 M423.3,614.3l64.1,117.8
			 M485.3,614.3l115.5,117.8 M330.5,614.3l-13.2,117.8 M640.1,614.3l61,29.5 M609.2,614.3l91.9,49.6 M578.2,614.3l122.9,75.2
			 M547.3,614.3l153.8,108.6 M516.3,614.3l141.3,117.8 M144.8,614.3L-2,717.6 M82.8,614.3L-2,660 M113.7,614.3L-2,684.9 M51.8,614.3
			l-53.8,26 M20.9,614.3l-22.9,10"/>
	</g>
	<g>
		<linearGradient id="SVGID_3_" gradientUnits="userSpaceOnUse" x1="-0.5498" y1="604.5254" x2="700.0498" y2="604.5254">
			<stop  offset="4.313726e-002" style="stop-color:#533217"/>
			<stop  offset="0.4863" style="stop-color:#7A4F23"/>
			<stop  offset="1" style="stop-color:#462A13"/>
		</linearGradient>
		<rect x="-0.5" y="596.5" fill-rule="evenodd" clip-rule="evenodd" fill="url(#SVGID_3_)" width="700.6" height="16"/>
	</g>
	<g>
		<linearGradient id="SVGID_4_" gradientUnits="userSpaceOnUse" x1="-0.5498" y1="606.1758" x2="700.0498" y2="606.1758">
			<stop  offset="0" style="stop-color:#4D2D15"/>
			<stop  offset="0.6157" style="stop-color:#573418"/>
			<stop  offset="1" style="stop-color:#4D2D15"/>
		</linearGradient>
		<rect x="-0.5" y="598.2" fill-rule="evenodd" clip-rule="evenodd" fill="url(#SVGID_4_)" width="700.6" height="16"/>
	</g>
</g>
<g>
	<g>
		<g>
			<radialGradient id="SVGID_5_" cx="339.75" cy="327.6001" r="496.55" gradientUnits="userSpaceOnUse">
				<stop  offset="0" style="stop-color:#263643"/>
				<stop  offset="1" style="stop-color:#10151B"/>
				<stop  offset="1" style="stop-color:#25363A"/>
			</radialGradient>
			<rect x="0" y="-1.3" fill-rule="evenodd" clip-rule="evenodd" fill="url(#SVGID_5_)" width="700.1" height="623.2"/>
		</g>
	</g>
	<g>
		<linearGradient id="SVGID_6_" gradientUnits="userSpaceOnUse" x1="350.0039" y1="702.3623" x2="350.068" y2="610.9373">
			<stop  offset="0" style="stop-color:#855727"/>
			<stop  offset="1" style="stop-color:#472913"/>
		</linearGradient>
		<rect x="0" y="614.2" fill-rule="evenodd" clip-rule="evenodd" fill="url(#SVGID_6_)" width="700.1" height="117"/>
	</g>
	<g>
		<g>
			
				<line fill-rule="evenodd" clip-rule="evenodd" fill="none" stroke="#8A5928" stroke-linecap="round" stroke-linejoin="round" stroke-miterlimit="3" x1="-2" y1="700" x2="701.1" y2="700"/>
			
				<line fill-rule="evenodd" clip-rule="evenodd" fill="none" stroke="#714820" stroke-linecap="round" stroke-linejoin="round" stroke-miterlimit="3" x1="-2" y1="665" x2="701.1" y2="665"/>
			
				<line fill-rule="evenodd" clip-rule="evenodd" fill="none" stroke="#6A421E" stroke-linecap="round" stroke-linejoin="round" stroke-miterlimit="3" x1="-2" y1="666.2" x2="701.1" y2="666.2"/>
			
				<line fill-rule="evenodd" clip-rule="evenodd" fill="none" stroke="#5E3A1A" stroke-linecap="round" stroke-linejoin="round" stroke-miterlimit="3" x1="-2" y1="639.2" x2="701.1" y2="639.2"/>
			
				<line fill-rule="evenodd" clip-rule="evenodd" fill="none" stroke="#553517" stroke-linecap="round" stroke-linejoin="round" stroke-miterlimit="3" x1="-2" y1="640.4" x2="701.1" y2="640.4"/>
			
				<line fill-rule="evenodd" clip-rule="evenodd" fill="none" stroke="#553217" stroke-linecap="round" stroke-linejoin="round" stroke-miterlimit="3" x1="-2" y1="624.2" x2="701.1" y2="624.2"/>
			
				<line fill-rule="evenodd" clip-rule="evenodd" fill="none" stroke="#4C2C14" stroke-linecap="round" stroke-linejoin="round" stroke-miterlimit="3" x1="-2" y1="625.4" x2="701.1" y2="625.4"/>
		</g>
	</g>
	<g>
		
			<path fill-rule="evenodd" clip-rule="evenodd" fill="none" stroke="#D6D6D6" stroke-linecap="round" stroke-linejoin="round" stroke-miterlimit="3" stroke-opacity="4.705882e-002" d="
			M672.3,614.3l28.8,12.6 M269.8,614.3l-64.6,117.8 M300.8,614.3l-38.9,117.8 M177,614.3L35.1,732.2 M238.9,614.3l-90.4,117.8
			 M208,614.3L91.8,732.2 M393.7,614.3l38.3,117.8 M362.7,614.3l12.6,117.8 M486.6,614.3L602,732.2 M455.6,614.3l89.8,117.8
			 M424.6,614.3l64.1,117.8 M331.7,614.3l-13.2,117.8 M641.3,614.3l59.8,28.9 M610.5,614.3l90.6,49 M579.5,614.3l121.6,74.4
			 M548.5,614.3L701.1,722 M517.5,614.3l141.2,117.8 M146,614.3L-2,718.5 M84,614.3L-2,660.7 M115,614.3L-2,685.7 M53,614.3
			L-2,640.9 M22.1,614.3L-2,624.8"/>
	</g>
	<g>
		
			<path fill-rule="evenodd" clip-rule="evenodd" fill="none" stroke="#000000" stroke-linecap="round" stroke-linejoin="round" stroke-miterlimit="3" stroke-opacity="9.803922e-002" d="
			M671.1,614.3l30,13.1 M268.6,614.3l-64.7,117.8 M299.5,614.3l-38.9,117.8 M175.7,614.3L33.9,732.2 M237.6,614.3l-90.3,117.8
			 M206.7,614.3L90.5,732.2 M392.4,614.3l38.3,117.8 M361.5,614.3L374,732.2 M454.3,614.3l89.8,117.8 M423.3,614.3l64.1,117.8
			 M485.3,614.3l115.5,117.8 M330.5,614.3l-13.2,117.8 M640.1,614.3l61,29.5 M609.2,614.3l91.9,49.6 M578.2,614.3l122.9,75.2
			 M547.3,614.3l153.8,108.6 M516.3,614.3l141.3,117.8 M144.8,614.3L-2,717.6 M82.8,614.3L-2,660 M113.7,614.3L-2,684.9 M51.8,614.3
			l-53.8,26 M20.9,614.3l-22.9,10"/>
	</g>
	<g>
		<linearGradient id="SVGID_7_" gradientUnits="userSpaceOnUse" x1="-0.5498" y1="604.5254" x2="700.0498" y2="604.5254">
			<stop  offset="4.313726e-002" style="stop-color:#533217"/>
			<stop  offset="0.4863" style="stop-color:#7A4F23"/>
			<stop  offset="1" style="stop-color:#462A13"/>
		</linearGradient>
		<rect x="-0.5" y="596.5" fill-rule="evenodd" clip-rule="evenodd" fill="url(#SVGID_7_)" width="700.6" height="16"/>
	</g>
	<g>
		<linearGradient id="SVGID_8_" gradientUnits="userSpaceOnUse" x1="-0.5498" y1="606.1758" x2="700.0498" y2="606.1758">
			<stop  offset="0" style="stop-color:#4D2D15"/>
			<stop  offset="0.6157" style="stop-color:#573418"/>
			<stop  offset="1" style="stop-color:#4D2D15"/>
		</linearGradient>
		<rect x="-0.5" y="598.2" fill-rule="evenodd" clip-rule="evenodd" fill="url(#SVGID_8_)" width="700.6" height="16"/>
	</g>
</g>
<g>
	<g>
		<g>
			<g>
				<path fill-rule="evenodd" clip-rule="evenodd" fill="#55555E" d="M346.2,197l12.1,32.3h-9.2c-1.2-0.9-2.3-2.1-3.1-3.7
					c-1.4-2.8-4.7-5.6-9.9-8.5c-5.2-2.8-8.3-5.4-9.4-7.9c-1.1-2.5-1.5-6.6-1.3-12.3L346.2,197z"/>
				<path fill-rule="evenodd" clip-rule="evenodd" fill="#696A74" d="M358.3,229.3L346.2,197c11.9-0.7,23.6-1,35.1-0.9l0.9,0.9
					c0.2,4.8-0.2,8.5-1.3,11.3c-1.2,2.7-4.4,5.6-9.6,8.6c-5.2,3-8.5,5.9-10,8.8C360.5,227.2,359.5,228.4,358.3,229.3z"/>
			</g>
		</g>
		<g>
			<linearGradient id="SVGID_9_" gradientUnits="userSpaceOnUse" x1="336.0112" y1="222.3193" x2="385.2201" y2="162.3016">
				<stop  offset="1.568628e-002" style="stop-color:#526F7A"/>
				<stop  offset="9.411765e-002" style="stop-color:#778991"/>
				<stop  offset="0.2078" style="stop-color:#EDEFEF"/>
				<stop  offset="0.349" style="stop-color:#878A93"/>
				<stop  offset="0.4902" style="stop-color:#B6B6C0"/>
				<stop  offset="1" style="stop-color:#54595F"/>
			</linearGradient>
			<path fill-rule="evenodd" clip-rule="evenodd" fill="url(#SVGID_9_)" d="M381.3,196.1c0.2,5.5-0.3,9.5-1.3,11.9
				c-1.1,2.5-4.2,5.2-9.3,8c-5.1,2.8-8.4,5.6-9.9,8.5c-0.8,1.5-1.8,2.7-2.9,3.6h-9.3c-1.2-0.9-2.2-2.1-3.1-3.6
				c-1.5-2.9-4.8-5.7-9.9-8.5c-5.1-2.8-8.2-5.5-9.3-8c-1.1-2.5-1.5-6.6-1.3-12.3L381.3,196.1z"/>
		</g>
		<g>
			<g>
				
					<linearGradient id="SVGID_10_" gradientUnits="userSpaceOnUse" x1="-413.7104" y1="117.8223" x2="-410.4931" y2="117.8223" gradientTransform="matrix(-0.7071 -0.7071 0.7071 -0.7071 -3.373623e-005 -7.721186e-004)">
					<stop  offset="0" style="stop-color:#696E74"/>
					<stop  offset="1" style="stop-color:#424041"/>
				</linearGradient>
				<path fill-rule="evenodd" clip-rule="evenodd" fill="url(#SVGID_10_)" d="M377.3,209c-0.1,0.9-0.4,1.6-1,2.3
					c-0.1,0.2-0.3,0.3-0.5,0.4c-0.1,0.1-0.3,0.2-0.4,0.3c0.2-0.1,0.3-0.3,0.5-0.5c0.7-0.7,1-1.5,1-2.4c0-1-0.3-1.8-1-2.5
					c-0.7-0.7-1.5-1-2.4-1c-0.2,0-0.4,0-0.6,0l0,0c0.3-0.1,0.6-0.2,1-0.2c0.4,0,0.9,0.1,1.3,0.2c0.4,0.2,0.7,0.5,1.1,0.8
					c0.7,0.7,1.1,1.6,1.1,2.6C377.3,208.9,377.3,209,377.3,209z"/>
				
					<linearGradient id="SVGID_11_" gradientUnits="userSpaceOnUse" x1="-336.7271" y1="268.2778" x2="-332.8923" y2="268.2778" gradientTransform="matrix(-0.379 -0.9254 0.9254 -0.379 -2.258420e-004 3.232658e-004)">
					<stop  offset="0" style="stop-color:#B9BDBE"/>
					<stop  offset="1" style="stop-color:#606068"/>
				</linearGradient>
				<path fill-rule="evenodd" clip-rule="evenodd" fill="url(#SVGID_11_)" d="M375.1,212l0-0.1c0.1-0.1,0.2-0.2,0.4-0.3
					c0.7-0.7,1-1.4,1-2.3c0-0.1,0-0.1,0-0.2c0-0.9-0.4-1.7-1-2.4c-0.3-0.4-0.7-0.6-1.2-0.9c-0.4-0.2-0.8-0.3-1.3-0.3
					c0,0-0.1,0-0.1,0v0c0.2,0,0.4,0,0.6,0c0.9,0,1.7,0.3,2.4,1c0.7,0.7,1,1.5,1,2.5c0,0.9-0.3,1.7-1,2.4c-0.2,0.2-0.3,0.4-0.5,0.5
					C375.2,211.9,375.2,212,375.1,212z"/>
				
					<linearGradient id="SVGID_12_" gradientUnits="userSpaceOnUse" x1="-329.124" y1="279.4839" x2="-322.3444" y2="279.4839" gradientTransform="matrix(-0.347 -0.9379 0.9379 -0.347 1.128316e-004 -2.202094e-004)">
					<stop  offset="0" style="stop-color:#666C7A"/>
					<stop  offset="1" style="stop-color:#494E61"/>
				</linearGradient>
				<path fill-rule="evenodd" clip-rule="evenodd" fill="url(#SVGID_12_)" d="M375,211.9l0-0.1l-2.2-6.2c0,0,0.1,0,0.1,0
					c0.5,0,0.9,0.1,1.3,0.3c0.4,0.2,0.8,0.5,1.2,0.9c0.7,0.7,1,1.5,1,2.4c0,0,0,0.1,0,0.2c0,0.9-0.4,1.7-1,2.3
					C375.3,211.6,375.2,211.8,375,211.9z"/>
				<path fill-rule="evenodd" clip-rule="evenodd" fill="#605D68" d="M372.8,205.5c-0.1,0-0.1,0-0.3,0c0,0-0.1,0-0.1,0h0
					c-0.1,0-0.1,0-0.2,0.1l-0.1-0.3c0.4-0.2,0.8-0.3,1.3-0.3c0,0,0.1,0,0.1,0c0.5,0,1,0.1,1.5,0.4c-0.4-0.1-0.9-0.2-1.3-0.2
					C373.4,205.3,373.1,205.4,372.8,205.5z"/>
				<path fill-rule="evenodd" clip-rule="evenodd" fill="#646F71" d="M375,211.9c0,0-0.1,0.1-0.1,0.1l-2.7-6.3v-0.1
					c0-0.1,0.1-0.1,0.2-0.1h0c0,0,0.1,0,0.1,0l2.5,6.2L375,211.9z"/>
				<path fill-rule="evenodd" clip-rule="evenodd" fill="#B8C0C3" d="M372.8,205.5c-0.1,0-0.2,0-0.3,0
					C372.7,205.5,372.7,205.5,372.8,205.5L372.8,205.5L372.8,205.5z M372.3,205.6L372.3,205.6L372.3,205.6L372.3,205.6z"/>
				<path fill-rule="evenodd" clip-rule="evenodd" fill="#38373C" d="M371.5,205.7c0.2-0.1,0.4-0.2,0.6-0.3l0.1,0.3l0,0.1
					c0,0-0.1,0-0.2,0c-0.1,0-0.3,0.1-0.4,0.2L371.5,205.7z"/>
				
					<linearGradient id="SVGID_13_" gradientUnits="userSpaceOnUse" x1="-349.9785" y1="259.9121" x2="-343.4164" y2="259.9121" gradientTransform="matrix(-0.3962 -0.9182 0.9082 -0.4192 -3.063679e-005 8.183718e-005)">
					<stop  offset="0" style="stop-color:#3D3D47"/>
					<stop  offset="1" style="stop-color:#33363D"/>
				</linearGradient>
				<path fill-rule="evenodd" clip-rule="evenodd" fill="url(#SVGID_13_)" d="M372.3,205.7l2.7,6.3h-0.1c-0.1,0.1-0.2,0.1-0.3,0.3
					c-0.1,0-0.2,0-0.3,0l-2.5-6.2c0.1-0.1,0.2-0.2,0.3-0.3C372.1,205.8,372.2,205.7,372.3,205.7L372.3,205.7z"/>
				<path fill-rule="evenodd" clip-rule="evenodd" fill="#AAB2B4" d="M375,211.7l-2.5-6.2c0.1,0,0.2,0,0.3,0L375,211.7z"/>
				<path fill-rule="evenodd" clip-rule="evenodd" fill="#B4B1AC" d="M371.3,205.9l0.1,0.3c-0.2,0.1-0.3,0.3-0.5,0.4
					c-0.2,0.2-0.3,0.4-0.4,0.5c-0.4,0.6-0.6,1.2-0.6,2c0,0.9,0.3,1.7,1,2.4c0.2,0.2,0.4,0.4,0.5,0.5c0.5,0.4,1.1,0.6,1.8,0.6
					c0.1,0,0.2,0,0.2,0c0.2,0,0.4,0,0.5,0c0.4-0.1,0.8-0.3,1.2-0.5l0.1,0.4c-0.5,0.3-1.1,0.4-1.8,0.4c-0.8,0-1.5-0.2-2-0.6
					c-0.1,0-0.2-0.1-0.3-0.2c-0.1-0.1-0.3-0.2-0.4-0.3c-0.7-0.7-1.1-1.6-1.1-2.7c0-0.8,0.2-1.5,0.6-2.1c0.2-0.2,0.3-0.4,0.5-0.6
					C370.9,206.1,371.1,206,371.3,205.9z"/>
				<path fill-rule="evenodd" clip-rule="evenodd" fill="#6B6A70" d="M371.3,205.9c0.1,0,0.1-0.1,0.2-0.1s0.1,0,0.1,0l0.1,0.3
					c0,0-0.1,0.1-0.1,0.1c-0.1,0-0.1,0-0.1,0.1L371.3,205.9z"/>
				<path fill-rule="evenodd" clip-rule="evenodd" fill="#52525A" d="M371.5,206.1c0,0-0.1,0.1-0.1,0.1l0-0.1
					C371.4,206.1,371.5,206,371.5,206.1c0-0.1,0.1-0.1,0.1-0.1c0.1-0.1,0.3-0.2,0.4-0.2c-0.1,0.1-0.2,0.1-0.3,0.3
					C371.7,206,371.6,206.1,371.5,206.1z"/>
				<path fill-rule="evenodd" clip-rule="evenodd" fill="#6A7579" d="M374.3,212.2c-0.1,0-0.1,0-0.2,0l-2.5-6.1c0,0,0.1-0.1,0.2-0.1
					L374.3,212.2z"/>
				
					<linearGradient id="SVGID_14_" gradientUnits="userSpaceOnUse" x1="-370.0723" y1="217.0371" x2="-365.5698" y2="217.0371" gradientTransform="matrix(-0.5004 -0.8658 0.8658 -0.5004 -2.115965e-005 -6.533265e-004)">
					<stop  offset="0" style="stop-color:#5F6170"/>
					<stop  offset="1" style="stop-color:#7C7C7C"/>
				</linearGradient>
				<path fill-rule="evenodd" clip-rule="evenodd" fill="url(#SVGID_14_)" d="M371.5,206.2l2.4,6h0c0,0-0.1,0-0.2,0
					c-0.6,0-1.2-0.2-1.8-0.6c-0.2-0.1-0.3-0.2-0.5-0.4c-0.7-0.7-1-1.5-1-2.5c0-0.7,0.2-1.4,0.6-2c0.1-0.1,0.3-0.3,0.4-0.4
					C371.4,206.3,371.4,206.3,371.5,206.2z"/>
				
					<linearGradient id="SVGID_15_" gradientUnits="userSpaceOnUse" x1="-411.7837" y1="114.834" x2="-409.8038" y2="114.834" gradientTransform="matrix(-0.7071 -0.7071 0.7071 -0.7071 -5.459785e-005 -3.046989e-004)">
					<stop  offset="0" style="stop-color:#E8E8E0"/>
					<stop  offset="1" style="stop-color:#535258"/>
				</linearGradient>
				<path fill-rule="evenodd" clip-rule="evenodd" fill="url(#SVGID_15_)" d="M373.8,212.3l0.1,0.2c-0.1,0-0.3,0-0.5,0
					c0,0-0.1,0-0.2,0c-0.6,0-1.2-0.2-1.8-0.6c-0.2-0.1-0.4-0.3-0.5-0.5c-0.7-0.7-1-1.5-1-2.4c0-0.7,0.2-1.4,0.6-2
					c0.1-0.2,0.2-0.4,0.4-0.5c0.2-0.1,0.3-0.3,0.5-0.4l0,0.1c0,0.1-0.1,0.1-0.2,0.1c-0.1,0.2-0.3,0.3-0.4,0.4
					c-0.4,0.6-0.6,1.3-0.6,2c0,1,0.3,1.8,1,2.5c0.2,0.2,0.4,0.3,0.5,0.4c0.6,0.4,1.2,0.6,1.8,0.6
					C373.7,212.3,373.8,212.3,373.8,212.3L373.8,212.3z"/>
				<path fill-rule="evenodd" clip-rule="evenodd" fill="#31343D" d="M374,212.3L374,212.3c-0.1,0-0.2,0-0.2,0l-2.4-6
					c0,0,0.1-0.1,0.1-0.1L374,212.3z"/>
				<path fill-rule="evenodd" clip-rule="evenodd" fill="#A9AAAF" d="M375.1,212c0.1,0,0.1-0.1,0.2-0.1c0.1,0,0.3-0.1,0.4-0.3
					c0.2-0.1,0.4-0.2,0.5-0.4c0.6-0.6,1-1.4,1-2.3c0,0.8-0.2,1.5-0.6,2.1c-0.2,0.2-0.3,0.4-0.5,0.6c-0.2,0.2-0.4,0.3-0.7,0.5
					c-0.1,0.1-0.2,0.1-0.3,0.1L375.1,212z"/>
			</g>
		</g>
		<g>
			<g>
				<path fill-rule="evenodd" clip-rule="evenodd" fill="#605D68" d="M338.1,206.7c-0.4-0.2-0.8-0.4-1.2-0.6
					c-0.3-0.1-0.6-0.1-0.9-0.1c-0.1,0-0.2,0-0.4,0c0,0-0.1,0-0.1,0v0c-0.1,0-0.1,0-0.1,0l-0.1,0.1l0-0.4c0.4,0,0.9,0.1,1.4,0.2
					c0.1,0,0.1,0,0.1,0C337.3,206.1,337.7,206.3,338.1,206.7z"/>
				
					<linearGradient id="SVGID_16_" gradientUnits="userSpaceOnUse" x1="-351.624" y1="186.6563" x2="-348.3867" y2="186.6563" gradientTransform="matrix(-0.5017 -0.865 0.865 -0.5017 1.563430e-004 -2.181530e-005)">
					<stop  offset="0" style="stop-color:#696E74"/>
					<stop  offset="1" style="stop-color:#424041"/>
				</linearGradient>
				<path fill-rule="evenodd" clip-rule="evenodd" fill="url(#SVGID_16_)" d="M335.9,206.1l0.1-0.1c0.3,0,0.6,0,0.9,0.1
					c0.4,0.2,0.8,0.4,1.2,0.6c0.3,0.3,0.6,0.6,0.8,1c0.5,0.9,0.7,1.8,0.5,2.8c0,0-0.1,0.1-0.1,0.1c-0.3,0.8-0.8,1.4-1.5,1.9
					c-0.2,0.1-0.5,0.2-0.6,0.3c-0.1,0-0.3,0.1-0.5,0.1v0c0.2-0.1,0.4-0.2,0.6-0.3c0.9-0.5,1.4-1.1,1.6-2c0.3-1,0.1-1.9-0.4-2.7
					c-0.5-0.8-1.2-1.3-2.1-1.6C336.3,206.2,336.1,206.1,335.9,206.1z"/>
				
					<linearGradient id="SVGID_17_" gradientUnits="userSpaceOnUse" x1="-258.4521" y1="302.5156" x2="-251.8867" y2="302.5156" gradientTransform="matrix(-0.1412 -0.99 0.99 -0.1412 2.389252e-004 2.051294e-004)">
					<stop  offset="0" style="stop-color:#3D3D47"/>
					<stop  offset="1" style="stop-color:#33363D"/>
				</linearGradient>
				<path fill-rule="evenodd" clip-rule="evenodd" fill="url(#SVGID_17_)" d="M335.3,206.1l1,6.7c0,0,0,0.1,0,0.1
					c-0.1,0.1-0.2,0.1-0.4,0.1c-0.1,0-0.1,0-0.3,0l-0.9-6.8c0.1,0,0.2-0.1,0.4-0.1C335.2,206.1,335.2,206.1,335.3,206.1z"/>
				<path fill-rule="evenodd" clip-rule="evenodd" fill="#38373C" d="M335.1,206.1c-0.1,0-0.3,0-0.5,0V206c0.2-0.1,0.4-0.2,0.6-0.2
					l0,0.4C335.2,206.1,335.2,206.1,335.1,206.1z"/>
				<path fill-rule="evenodd" clip-rule="evenodd" fill="#6B6A70" d="M334.6,206v0.2c0,0-0.1,0.1-0.1,0.1c0-0.1-0.1-0.1-0.1,0
					l-0.1-0.3c0.1,0,0.1-0.1,0.1-0.1C334.5,206,334.6,206,334.6,206z"/>
				
					<linearGradient id="SVGID_18_" gradientUnits="userSpaceOnUse" x1="-291.4541" y1="268.3442" x2="-286.9547" y2="268.3442" gradientTransform="matrix(-0.2583 -0.9661 0.9661 -0.2583 -1.448393e-005 -1.080930e-004)">
					<stop  offset="0" style="stop-color:#5F6170"/>
					<stop  offset="1" style="stop-color:#7C7C7C"/>
				</linearGradient>
				<path fill-rule="evenodd" clip-rule="evenodd" fill="url(#SVGID_18_)" d="M334.4,206.4l0.9,6.5c0,0-0.1,0-0.1-0.1
					c-0.1,0-0.2,0-0.2,0c-0.6-0.2-1.2-0.5-1.6-1c-0.1-0.2-0.2-0.3-0.4-0.5c-0.4-0.9-0.5-1.8-0.3-2.6c0.2-0.7,0.6-1.3,1.1-1.8
					c0.2-0.1,0.3-0.2,0.5-0.4C334.3,206.5,334.3,206.4,334.4,206.4z"/>
				
					<linearGradient id="SVGID_19_" gradientUnits="userSpaceOnUse" x1="-350.0566" y1="182.8696" x2="-348.1185" y2="182.8696" gradientTransform="matrix(-0.5038 -0.8638 0.8638 -0.5038 -1.156330e-005 6.709099e-004)">
					<stop  offset="0" style="stop-color:#E8E8E0"/>
					<stop  offset="1" style="stop-color:#535258"/>
				</linearGradient>
				<path fill-rule="evenodd" clip-rule="evenodd" fill="url(#SVGID_19_)" d="M335.2,212.9v0.1c-0.2,0-0.4,0-0.6,0
					c0,0-0.1-0.1-0.1-0.1c-0.7-0.2-1.2-0.5-1.6-1c-0.2-0.2-0.3-0.4-0.4-0.6c-0.5-0.9-0.6-1.8-0.3-2.6c0.2-0.7,0.6-1.3,1.1-1.7
					c0.2-0.1,0.4-0.3,0.6-0.4c0.2-0.1,0.4-0.2,0.6-0.3l-0.1,0.1c0,0-0.1,0.1-0.1,0.1c-0.2,0.2-0.4,0.3-0.5,0.4
					c-0.5,0.4-0.9,1-1.1,1.8c-0.2,0.9-0.1,1.8,0.3,2.6c0.2,0.2,0.3,0.4,0.4,0.5c0.4,0.5,1,0.8,1.6,1
					C335,212.8,335,212.8,335.2,212.9C335.1,212.8,335.2,212.9,335.2,212.9z"/>
				<path fill-rule="evenodd" clip-rule="evenodd" fill="#52525A" d="M334.6,206.1c0.2,0,0.3,0,0.5,0c-0.1,0-0.3,0.1-0.4,0.1
					c-0.1,0.1-0.2,0.1-0.2,0.1c0,0-0.1,0-0.2,0l0.1-0.1c0-0.1,0.1-0.1,0.1,0C334.6,206.2,334.6,206.2,334.6,206.1z"/>
				<path fill-rule="evenodd" clip-rule="evenodd" fill="#6A7579" d="M335.6,213c-0.1,0-0.1-0.1-0.2-0.1l-0.9-6.5
					c0,0,0.1-0.1,0.2-0.1L335.6,213z"/>
				<path fill-rule="evenodd" clip-rule="evenodd" fill="#B4B1AC" d="M334.5,206.3c-0.2,0.1-0.4,0.2-0.6,0.3
					c-0.2,0.1-0.4,0.2-0.6,0.4c-0.5,0.4-0.9,1-1.1,1.7c-0.2,0.9-0.1,1.8,0.3,2.6c0.1,0.2,0.2,0.4,0.4,0.6c0.4,0.5,0.9,0.9,1.6,1
					c0,0,0.1,0,0.1,0.1c0.2,0,0.4,0,0.6,0c0.4,0.1,0.8,0.1,1.3-0.1v0.4c-0.6,0.1-1.2,0.1-1.9,0c-0.7-0.2-1.3-0.6-1.8-1.1
					c-0.1-0.1-0.2-0.2-0.2-0.2c-0.1-0.2-0.2-0.3-0.3-0.5c-0.5-0.9-0.6-1.9-0.3-2.9c0.2-0.8,0.6-1.4,1.1-1.9c0.3-0.1,0.5-0.3,0.7-0.4
					c0.2-0.1,0.4-0.2,0.6-0.3L334.5,206.3z"/>
				<path fill-rule="evenodd" clip-rule="evenodd" fill="#31343D" d="M334.5,206.4l0.9,6.5l-0.1,0c0,0-0.1,0-0.1,0l-0.9-6.5
					C334.5,206.4,334.5,206.4,334.5,206.4z"/>
				<path fill-rule="evenodd" clip-rule="evenodd" fill="#B8C0C3" d="M335.9,206.1L335.9,206.1c0,0-0.2,0-0.3-0.1c0.1,0,0.3,0,0.4,0
					L335.9,206.1z"/>
				
					<linearGradient id="SVGID_20_" gradientUnits="userSpaceOnUse" x1="-251.1909" y1="309.1709" x2="-247.3365" y2="309.1709" gradientTransform="matrix(-0.1231 -0.9924 0.9924 -0.1231 -1.217276e-004 -7.414818e-005)">
					<stop  offset="0" style="stop-color:#B9BDBE"/>
					<stop  offset="1" style="stop-color:#606068"/>
				</linearGradient>
				<path fill-rule="evenodd" clip-rule="evenodd" fill="url(#SVGID_20_)" d="M336.5,212.8l-0.1-0.1l-0.8-6.6
					c0.1,0.1,0.3,0.1,0.4,0.1l-0.1,0c0.2,0,0.4,0.1,0.6,0.1c0.9,0.3,1.6,0.8,2.1,1.6c0.5,0.8,0.6,1.7,0.4,2.7
					c-0.2,0.9-0.8,1.6-1.6,2c-0.2,0.1-0.4,0.2-0.6,0.3c0,0-0.1,0-0.1,0V212.8z"/>
				<path fill-rule="evenodd" clip-rule="evenodd" fill="#646F71" d="M335.6,206l0.8,6.6l0.1,0.1c-0.1,0-0.2,0-0.2,0l-1-6.7l0.1-0.1
					c0-0.1,0-0.1,0.1,0v0C335.5,206,335.6,206,335.6,206z"/>
				<path fill-rule="evenodd" clip-rule="evenodd" fill="#A9AAAF" d="M336.5,212.9c0.1,0,0.1,0,0.1,0c0.2,0,0.4-0.1,0.5-0.1
					c0.2-0.1,0.4-0.2,0.6-0.3c0.7-0.5,1.3-1.1,1.5-1.9c-0.2,0.7-0.6,1.4-1.1,1.9c-0.2,0.1-0.4,0.3-0.6,0.4c-0.2,0.2-0.5,0.3-0.7,0.3
					c-0.1,0-0.2,0.1-0.3,0.1V212.9z"/>
			</g>
		</g>
		<g>
			<g>
				<path fill-rule="evenodd" clip-rule="evenodd" fill="#605D68" d="M354.9,219.8c-0.4-0.1-0.9-0.2-1.3-0.2c-0.4,0-0.7,0-1,0.1
					c-0.1,0-0.2,0-0.3,0c0,0-0.1,0-0.1,0.1h0c0-0.1-0.1,0-0.1,0.1l-0.1-0.3c0.4-0.2,0.8-0.3,1.3-0.3c0,0,0.1,0,0.2,0
					C353.9,219.5,354.4,219.6,354.9,219.8z"/>
				<path fill-rule="evenodd" clip-rule="evenodd" fill="#52525A" d="M351.2,220.5l0-0.1c0,0,0.1,0,0.2,0c0,0,0.1-0.1,0.1-0.1
					c0.1-0.1,0.3-0.2,0.3-0.2c-0.1,0.1-0.2,0.2-0.3,0.3c-0.1,0-0.1,0.1-0.2,0.1C351.3,220.4,351.3,220.5,351.2,220.5z"/>
				
					<linearGradient id="SVGID_21_" gradientUnits="userSpaceOnUse" x1="-354.499" y1="235.6997" x2="-347.937" y2="235.6997" gradientTransform="matrix(-0.3962 -0.9182 0.9082 -0.4192 -3.063679e-005 8.183718e-005)">
					<stop  offset="0" style="stop-color:#3D3D47"/>
					<stop  offset="1" style="stop-color:#33363D"/>
				</linearGradient>
				<path fill-rule="evenodd" clip-rule="evenodd" fill="url(#SVGID_21_)" d="M354,226.5l-2.5-6.2c0.1-0.1,0.2-0.2,0.3-0.3
					c0.1,0,0.2,0,0.2,0h0l2.7,6.3h0c-0.1,0.1-0.2,0.2-0.3,0.3C354.2,226.5,354.1,226.5,354,226.5z"/>
				<path fill-rule="evenodd" clip-rule="evenodd" fill="#6A7579" d="M353.8,226.5l-2.5-6.1c0,0,0.1-0.1,0.2-0.1l2.5,6.2
					C354,226.5,353.9,226.5,353.8,226.5z"/>
				<path fill-rule="evenodd" clip-rule="evenodd" fill="#38373C" d="M351.3,220c0.2-0.1,0.4-0.2,0.6-0.3l0.1,0.3l0,0
					c0,0-0.1,0-0.2,0c-0.1,0-0.2,0.1-0.3,0.2L351.3,220z"/>
				<path fill-rule="evenodd" clip-rule="evenodd" fill="#6B6A70" d="M351.5,220.3c0,0-0.1,0.1-0.1,0.1c-0.1,0-0.2,0-0.2,0l-0.1-0.3
					c0,0,0.1-0.1,0.1-0.1c0.1,0,0.1,0,0.1,0L351.5,220.3z"/>
				<path fill-rule="evenodd" clip-rule="evenodd" fill="#B4B1AC" d="M353.7,226.8c0.4-0.1,0.8-0.3,1.2-0.5l0.1,0.4
					c-0.5,0.3-1.1,0.4-1.8,0.4c-0.8,0-1.5-0.2-2.1-0.6c-0.1,0-0.2-0.1-0.3-0.2c-0.1-0.1-0.2-0.2-0.4-0.3c-0.7-0.7-1-1.6-1-2.7
					c0-0.8,0.2-1.5,0.6-2.1c0.1-0.2,0.3-0.4,0.5-0.6c0.2-0.2,0.4-0.3,0.6-0.5l0.1,0.3c-0.2,0.1-0.3,0.3-0.5,0.4
					c-0.2,0.2-0.3,0.4-0.5,0.6c-0.4,0.6-0.5,1.2-0.5,1.9c0,0.9,0.3,1.8,1,2.5c0.2,0.2,0.4,0.3,0.5,0.5c0.6,0.4,1.2,0.5,1.8,0.5
					c0.1,0,0.1,0,0.2,0C353.3,226.8,353.5,226.8,353.7,226.8z"/>
				
					<linearGradient id="SVGID_22_" gradientUnits="userSpaceOnUse" x1="-372.3457" y1="192.3584" x2="-367.8432" y2="192.3584" gradientTransform="matrix(-0.5004 -0.8658 0.8658 -0.5004 -2.115965e-005 -6.533265e-004)">
					<stop  offset="0" style="stop-color:#5F6170"/>
					<stop  offset="1" style="stop-color:#7C7C7C"/>
				</linearGradient>
				<path fill-rule="evenodd" clip-rule="evenodd" fill="url(#SVGID_22_)" d="M351.2,220.5l2.5,6h-0.1c-0.1,0-0.1,0-0.2,0
					c-0.6,0-1.2-0.2-1.8-0.6c-0.2-0.1-0.4-0.2-0.6-0.4c-0.7-0.7-1-1.5-1-2.5c0-0.7,0.2-1.3,0.6-1.9c0.1-0.1,0.2-0.3,0.4-0.5
					C351.1,220.6,351.2,220.6,351.2,220.5z"/>
				
					<linearGradient id="SVGID_23_" gradientUnits="userSpaceOnUse" x1="-407.6118" y1="90.4033" x2="-405.6319" y2="90.4033" gradientTransform="matrix(-0.7071 -0.7071 0.7071 -0.7071 -5.459785e-005 -3.046989e-004)">
					<stop  offset="0" style="stop-color:#E8E8E0"/>
					<stop  offset="1" style="stop-color:#535258"/>
				</linearGradient>
				<path fill-rule="evenodd" clip-rule="evenodd" fill="url(#SVGID_23_)" d="M353.7,226.5l0,0.2c-0.2,0-0.4,0-0.5,0
					c0,0-0.1,0-0.2,0c-0.6,0-1.2-0.2-1.8-0.5c-0.1-0.1-0.3-0.3-0.5-0.5c-0.7-0.7-1-1.5-1-2.5c0-0.7,0.2-1.4,0.5-1.9
					c0.1-0.2,0.3-0.4,0.5-0.6c0.1-0.1,0.3-0.3,0.5-0.4l0,0.1c0,0-0.1,0.1-0.1,0.1c-0.2,0.2-0.3,0.3-0.4,0.5
					c-0.4,0.6-0.6,1.3-0.6,1.9c0,1,0.3,1.8,1,2.5c0.2,0.2,0.4,0.3,0.6,0.4c0.5,0.4,1.1,0.6,1.8,0.6
					C353.5,226.5,353.5,226.5,353.7,226.5L353.7,226.5z"/>
				<path fill-rule="evenodd" clip-rule="evenodd" fill="#31343D" d="M351.3,220.4l2.5,6.1h0c0,0-0.1,0-0.1,0l-2.5-6
					C351.3,220.5,351.3,220.4,351.3,220.4z"/>
				<path fill-rule="evenodd" clip-rule="evenodd" fill="#B8C0C3" d="M352.7,219.9c-0.1,0-0.2,0-0.3-0.1c0.1,0,0.2,0,0.3,0l0.1,0
					V219.9z M352,220L352,220L352,220L352,220z"/>
				
					<linearGradient id="SVGID_24_" gradientUnits="userSpaceOnUse" x1="-409.5029" y1="93.4087" x2="-406.2856" y2="93.4087" gradientTransform="matrix(-0.7071 -0.7071 0.7071 -0.7071 -3.373623e-005 -7.721186e-004)">
					<stop  offset="0" style="stop-color:#696E74"/>
					<stop  offset="1" style="stop-color:#424041"/>
				</linearGradient>
				<path fill-rule="evenodd" clip-rule="evenodd" fill="url(#SVGID_24_)" d="M354.9,219.8c0.3,0.2,0.7,0.5,1,0.8
					c0.7,0.7,1,1.6,1,2.6c0,0,0,0.1,0,0.1c0,0.9-0.4,1.6-1,2.3c-0.2,0.2-0.3,0.3-0.5,0.4c-0.1,0.1-0.3,0.2-0.5,0.3
					c0.2-0.1,0.4-0.3,0.5-0.5c0.7-0.7,1.1-1.5,1.1-2.5c0-1-0.4-1.8-1.1-2.5c-0.7-0.7-1.5-1-2.4-1c-0.2,0-0.4,0-0.5,0l-0.1,0
					c0.3-0.1,0.6-0.1,1-0.1C354,219.6,354.5,219.7,354.9,219.8z"/>
				
					<linearGradient id="SVGID_25_" gradientUnits="userSpaceOnUse" x1="-342.3501" y1="244.1611" x2="-338.5154" y2="244.1611" gradientTransform="matrix(-0.379 -0.9254 0.9254 -0.379 -2.258420e-004 3.232658e-004)">
					<stop  offset="0" style="stop-color:#B9BDBE"/>
					<stop  offset="1" style="stop-color:#606068"/>
				</linearGradient>
				<path fill-rule="evenodd" clip-rule="evenodd" fill="url(#SVGID_25_)" d="M355,226.2c0,0-0.1,0.1-0.1,0.1l-0.1-0.1
					c0.1-0.1,0.2-0.2,0.4-0.3c0.7-0.7,1-1.5,1-2.4c0-0.1,0-0.1,0-0.1c0-0.9-0.3-1.7-1-2.4c-0.3-0.4-0.7-0.7-1.2-0.9
					c-0.4-0.1-0.8-0.2-1.3-0.2c0,0-0.1,0-0.1,0v-0.1c0.1,0,0.3,0,0.5,0c1,0,1.8,0.3,2.4,1c0.7,0.7,1.1,1.5,1.1,2.5
					c0,0.9-0.4,1.8-1.1,2.5C355.4,225.9,355.3,226.1,355,226.2z"/>
				
					<linearGradient id="SVGID_26_" gradientUnits="userSpaceOnUse" x1="-335.5088" y1="255.5566" x2="-328.7292" y2="255.5566" gradientTransform="matrix(-0.347 -0.9379 0.9379 -0.347 1.128316e-004 -2.202094e-004)">
					<stop  offset="0" style="stop-color:#666C7A"/>
					<stop  offset="1" style="stop-color:#494E61"/>
				</linearGradient>
				<path fill-rule="evenodd" clip-rule="evenodd" fill="url(#SVGID_26_)" d="M354.8,226.1l-0.1-0.1l-2.1-6.1c0,0,0.1,0,0.1,0
					c0.5,0,0.9,0.1,1.3,0.2c0.4,0.2,0.8,0.5,1.2,0.9c0.7,0.7,1,1.5,1,2.4c0,0,0,0.1,0,0.1c0,0.9-0.4,1.7-1,2.4
					C355.1,226,355,226,354.8,226.1z"/>
				<path fill-rule="evenodd" clip-rule="evenodd" fill="#646F71" d="M352.3,219.8l2.4,6.2l0.1,0.1c-0.1,0-0.1,0.1-0.1,0.1L352,220
					v0c0-0.1,0.1-0.1,0.1-0.1h0C352.3,219.8,352.3,219.8,352.3,219.8z"/>
				<path fill-rule="evenodd" clip-rule="evenodd" fill="#AAB2B4" d="M354.8,226l-2.4-6.2c0.1,0.1,0.2,0.1,0.3,0.1L354.8,226z"/>
				<path fill-rule="evenodd" clip-rule="evenodd" fill="#A9AAAF" d="M357,223.3c0,0.8-0.2,1.5-0.6,2.2c-0.1,0.2-0.3,0.4-0.5,0.5
					c-0.2,0.2-0.4,0.3-0.7,0.5c-0.1,0.1-0.2,0.1-0.3,0.2l-0.1-0.4c0.1,0,0.1-0.1,0.1-0.1c0.2,0,0.3-0.1,0.5-0.3
					c0.2-0.1,0.3-0.2,0.5-0.4C356.6,224.9,357,224.2,357,223.3z"/>
			</g>
		</g>
		<g>
			
				<radialGradient id="SVGID_27_" cx="376.2998" cy="208" r="4.5574" gradientTransform="matrix(0.2624 0.965 -0.4308 0.1171 367.1871 -179.4825)" gradientUnits="userSpaceOnUse">
				<stop  offset="0" style="stop-color:#FFFFFF"/>
				<stop  offset="0.1255" style="stop-color:#FCFCFC"/>
				<stop  offset="0.2745" style="stop-color:#FBFBFB;stop-opacity:0.302"/>
				<stop  offset="0.5569" style="stop-color:#F9F9F9;stop-opacity:0.102"/>
				<stop  offset="0.8039" style="stop-color:#FAFAFA;stop-opacity:0"/>
				<stop  offset="1" style="stop-color:#FCFCFC;stop-opacity:0"/>
			</radialGradient>
			<path fill-rule="evenodd" clip-rule="evenodd" fill="url(#SVGID_27_)" d="M374.8,208.4c-0.2-0.9-0.3-1.8-0.2-2.5
				c0.2-0.7,0.5-1.1,0.9-1.2c0.4-0.1,0.9,0.1,1.3,0.6c0.5,0.6,0.8,1.3,1,2.3c0.3,1,0.3,1.8,0.3,2.5c-0.1,0.8-0.4,1.2-0.8,1.3
				c-0.4,0.1-0.8-0.1-1.3-0.7C375.4,210.2,375,209.4,374.8,208.4z"/>
		</g>
		<g>
			
				<radialGradient id="SVGID_28_" cx="355.6504" cy="222.1001" r="4.2603" gradientTransform="matrix(0.2618 0.9651 -0.4314 0.117 358.337 -147.1366)" gradientUnits="userSpaceOnUse">
				<stop  offset="0" style="stop-color:#FFFFFF"/>
				<stop  offset="0.1255" style="stop-color:#FCFCFC"/>
				<stop  offset="0.2745" style="stop-color:#FBFBFB;stop-opacity:0.302"/>
				<stop  offset="0.5569" style="stop-color:#F9F9F9;stop-opacity:0.102"/>
				<stop  offset="0.8039" style="stop-color:#FAFAFA;stop-opacity:0"/>
				<stop  offset="1" style="stop-color:#FCFCFC;stop-opacity:0"/>
			</radialGradient>
			<path fill-rule="evenodd" clip-rule="evenodd" fill="url(#SVGID_28_)" d="M354.3,222.5c-0.2-0.9-0.3-1.7-0.2-2.4
				c0.2-0.7,0.4-1,0.8-1.1c0.4-0.1,0.8,0.1,1.2,0.6s0.8,1.3,1,2.1c0.3,0.9,0.3,1.7,0.2,2.4c-0.1,0.7-0.4,1.1-0.8,1.1
				c-0.4,0.1-0.8-0.1-1.2-0.6C354.8,224.1,354.5,223.5,354.3,222.5z"/>
		</g>
		<g>
			
				<radialGradient id="SVGID_29_" cx="331.8501" cy="210.3501" r="4.5574" gradientTransform="matrix(0.2624 0.965 -0.4308 0.1171 335.4118 -134.5151)" gradientUnits="userSpaceOnUse">
				<stop  offset="0" style="stop-color:#FFFFFF"/>
				<stop  offset="0.1255" style="stop-color:#FCFCFC"/>
				<stop  offset="0.2745" style="stop-color:#FBFBFB;stop-opacity:0.302"/>
				<stop  offset="0.5569" style="stop-color:#F9F9F9;stop-opacity:0.102"/>
				<stop  offset="0.8039" style="stop-color:#FAFAFA;stop-opacity:0"/>
				<stop  offset="1" style="stop-color:#FCFCFC;stop-opacity:0"/>
			</radialGradient>
			<path fill-rule="evenodd" clip-rule="evenodd" fill="url(#SVGID_29_)" d="M330.3,210.8c-0.2-0.9-0.3-1.8-0.2-2.5
				c0.2-0.7,0.4-1.1,0.9-1.3c0.4-0.1,0.9,0.1,1.3,0.6c0.5,0.6,0.8,1.4,1,2.3c0.3,1,0.4,1.8,0.3,2.5c-0.1,0.7-0.4,1.2-0.8,1.3
				c-0.4,0.1-0.8-0.1-1.3-0.7C330.9,212.5,330.6,211.8,330.3,210.8z"/>
		</g>
		<g>
			
				<radialGradient id="SVGID_30_" cx="265.0132" cy="-424.4824" r="4.4312" gradientTransform="matrix(-0.567 0.8237 -0.3526 -5.641866e-003 360.0358 5.7606)" gradientUnits="userSpaceOnUse">
				<stop  offset="0" style="stop-color:#FFFFFF"/>
				<stop  offset="0.1255" style="stop-color:#FCFCFC"/>
				<stop  offset="0.2745" style="stop-color:#FBFBFB;stop-opacity:0.302"/>
				<stop  offset="0.5569" style="stop-color:#F9F9F9;stop-opacity:0.102"/>
				<stop  offset="0.8039" style="stop-color:#FAFAFA;stop-opacity:0"/>
				<stop  offset="1" style="stop-color:#FCFCFC;stop-opacity:0"/>
			</radialGradient>
			<path fill-rule="evenodd" clip-rule="evenodd" fill="url(#SVGID_30_)" d="M358.3,226.4c0.5-0.8,1.1-1.4,1.7-1.9
				c0.6-0.5,1.1-0.8,1.4-0.8c0.4,0,0.5,0.3,0.4,0.8c-0.2,0.6-0.5,1.2-1.1,2c-0.5,0.8-1.1,1.4-1.7,2c-0.6,0.6-1.1,0.8-1.5,0.8
				c-0.3-0.1-0.4-0.3-0.3-0.8C357.3,227.9,357.7,227.2,358.3,226.4z"/>
		</g>
	</g>
</g>
</svg>
