<?xml version="1.0" encoding="utf-8"?>
<!-- Generator: Adobe Illustrator 16.0.0, SVG Export Plug-In . SVG Version: 6.00 Build 0)  -->
<!DOCTYPE svg PUBLIC "-//W3C//DTD SVG 1.1//EN" "http://www.w3.org/Graphics/SVG/1.1/DTD/svg11.dtd">
<svg version="1.1" id="Layer_1" xmlns="http://www.w3.org/2000/svg" xmlns:xlink="http://www.w3.org/1999/xlink" x="0px" y="0px"
	 width="15px" height="9px" viewBox="0 0 15 9" enable-background="new 0 0 15 9" xml:space="preserve">
<g>
	<g>
		<g>
			
				<linearGradient id="SVGID_1_" gradientUnits="userSpaceOnUse" x1="1.3765" y1="-13.5059" x2="6.5015" y2="-13.5059" gradientTransform="matrix(1.951220e-004 1 -1 1.388885e-002 1.841291e-004 -4.740506e-004)">
				<stop  offset="0" style="stop-color:#8C8C8C"/>
				<stop  offset="7.843138e-002" style="stop-color:#A2A2A2"/>
				<stop  offset="0.1569" style="stop-color:#C8C8C8"/>
				<stop  offset="0.2549" style="stop-color:#939393"/>
				<stop  offset="0.4275" style="stop-color:#656565"/>
				<stop  offset="0.6902" style="stop-color:#2F2F2F"/>
				<stop  offset="1" style="stop-color:#000000"/>
			</linearGradient>
			<path fill-rule="evenodd" clip-rule="evenodd" fill="url(#SVGID_1_)" d="M12.9,7.7c0.4-2.4,0.3-4.6-0.3-6.8
				c0.7-0.5,1.2-0.4,1.4,0.4C14.6,3.7,14.6,6,13.8,8C13.5,8.1,13.2,8,12.9,7.7z"/>
			<linearGradient id="SVGID_2_" gradientUnits="userSpaceOnUse" x1="13.5156" y1="4.0483" x2="10.3909" y2="4.8745">
				<stop  offset="0" style="stop-color:#6F6F6F"/>
				<stop  offset="1" style="stop-color:#000000"/>
			</linearGradient>
			<path fill-rule="evenodd" clip-rule="evenodd" fill="url(#SVGID_2_)" d="M10.7,6c0.3-0.8,0.3-1.8,0-2.8h0.1
				c0.9-0.3,1.5-1.1,1.8-2.4c0.6,2.2,0.7,4.4,0.3,6.8c-0.1-0.2-0.3-0.4-0.4-0.7C12,6.3,11.4,6,10.7,6z"/>
			<linearGradient id="SVGID_3_" gradientUnits="userSpaceOnUse" x1="8.8008" y1="4.125" x2="8.8008" y2="6.675">
				<stop  offset="0" style="stop-color:#6F6F6F"/>
				<stop  offset="1" style="stop-color:#000000"/>
			</linearGradient>
			<path fill-rule="evenodd" clip-rule="evenodd" fill="url(#SVGID_3_)" d="M10.7,3.3c0.3,1,0.3,2,0,2.8c-0.1,0-0.2,0-0.3,0H6.6V3.3
				H10.7z"/>
		</g>
	</g>
	<g>
		<g>
			<linearGradient id="SVGID_4_" gradientUnits="userSpaceOnUse" x1="0.4624" y1="1.8501" x2="9.7374" y2="1.8501">
				<stop  offset="0" style="stop-color:#707175"/>
				<stop  offset="0.3373" style="stop-color:#78797E"/>
				<stop  offset="0.5529" style="stop-color:#A5A6A7"/>
				<stop  offset="0.7373" style="stop-color:#818389"/>
				<stop  offset="1" style="stop-color:#878A91"/>
			</linearGradient>
			<path fill-rule="evenodd" clip-rule="evenodd" fill="url(#SVGID_4_)" d="M9.7,1.9C9.5,2.1,9.1,2.3,8.3,2.5
				C7.5,2.7,6.4,2.9,5.1,2.9c-1.3,0-2.4-0.1-3.3-0.4C0.9,2.3,0.5,2,0.5,1.7c0-0.2,0.3-0.5,0.8-0.9v0c0.1,0.4,0.5,0.6,1.1,0.7
				c0.8,0.2,1.7,0.3,2.8,0.3c1.1,0,2-0.1,2.8-0.3c0.6-0.1,1-0.3,1.2-0.7v0c0.3,0.3,0.5,0.6,0.5,0.8L9.7,1.9z"/>
			<path fill-rule="evenodd" clip-rule="evenodd" fill="#7F8085" d="M9.2,0.9C9,1.3,8.6,1.5,8,1.6C7.2,1.8,6.3,1.9,5.2,1.9
				c-1.1,0-2-0.1-2.8-0.3c-0.6-0.1-1-0.3-1.1-0.7c0-0.2,0.2-0.3,0.5-0.4v0.1c2.2,0.5,4.3,0.5,6.5,0V0.3C8.8,0.5,9.1,0.7,9.2,0.9z"/>
			<linearGradient id="SVGID_5_" gradientUnits="userSpaceOnUse" x1="0.4873" y1="5.2002" x2="9.7123" y2="5.2002">
				<stop  offset="3.921569e-003" style="stop-color:#85868A"/>
				<stop  offset="0.1137" style="stop-color:#474552"/>
				<stop  offset="0.2588" style="stop-color:#454350"/>
				<stop  offset="0.3961" style="stop-color:#484850"/>
				<stop  offset="0.5255" style="stop-color:#636675"/>
				<stop  offset="0.6196" style="stop-color:#525274"/>
				<stop  offset="0.8039" style="stop-color:#73788E"/>
				<stop  offset="0.8667" style="stop-color:#707589"/>
				<stop  offset="1" style="stop-color:#484B58"/>
			</linearGradient>
			<path fill-rule="evenodd" clip-rule="evenodd" fill="url(#SVGID_5_)" d="M0.5,1.7c0,0.3,0.4,0.6,1.3,0.8c0.9,0.2,2,0.4,3.3,0.4
				c1.3,0,2.4-0.1,3.2-0.4c0.7-0.2,1.2-0.4,1.4-0.6v5.9C9.5,8,9.1,8.2,8.3,8.3C7.5,8.6,6.4,8.7,5.1,8.7c-1.3,0-2.4-0.1-3.3-0.4
				C0.9,8.2,0.5,7.9,0.5,7.5V1.7z"/>
		</g>
	</g>
	<g>
		
			<radialGradient id="SVGID_6_" cx="4.4502" cy="2" r="3.35" gradientTransform="matrix(1 0 0 0.444 0 1.1119)" gradientUnits="userSpaceOnUse">
			<stop  offset="0" style="stop-color:#FFFFFF"/>
			<stop  offset="0.1255" style="stop-color:#FCFCFC"/>
			<stop  offset="0.2745" style="stop-color:#FBFBFB;stop-opacity:0.302"/>
			<stop  offset="0.5569" style="stop-color:#F9F9F9;stop-opacity:0.102"/>
			<stop  offset="0.8039" style="stop-color:#FAFAFA;stop-opacity:0"/>
			<stop  offset="1" style="stop-color:#FCFCFC;stop-opacity:0"/>
		</radialGradient>
		<path fill-rule="evenodd" clip-rule="evenodd" fill="url(#SVGID_6_)" d="M4.5,3.2c-0.7,0-1.3-0.1-1.9-0.4C2.1,2.6,1.9,2.3,1.9,2
			c0-0.3,0.2-0.6,0.7-0.8C3.1,1,3.8,0.9,4.5,0.9c0.7,0,1.3,0.1,1.8,0.3C6.8,1.4,7,1.7,7,2c0,0.3-0.3,0.6-0.8,0.9S5.2,3.2,4.5,3.2z"
			/>
	</g>
	<g>
		
			<radialGradient id="SVGID_7_" cx="7.25" cy="1.8501" r="2.525" gradientTransform="matrix(1 0 0 0.4455 0 1.0258)" gradientUnits="userSpaceOnUse">
			<stop  offset="0" style="stop-color:#FFFFFF"/>
			<stop  offset="0.1255" style="stop-color:#FCFCFC"/>
			<stop  offset="0.2745" style="stop-color:#FBFBFB;stop-opacity:0.302"/>
			<stop  offset="0.5569" style="stop-color:#F9F9F9;stop-opacity:0.102"/>
			<stop  offset="0.8039" style="stop-color:#FAFAFA;stop-opacity:0"/>
			<stop  offset="1" style="stop-color:#FCFCFC;stop-opacity:0"/>
		</radialGradient>
		<path fill-rule="evenodd" clip-rule="evenodd" fill="url(#SVGID_7_)" d="M7.3,1c0.6,0,1,0.1,1.4,0.3C9,1.4,9.3,1.6,9.3,1.9
			S9,2.3,8.7,2.5C8.3,2.7,7.8,2.8,7.3,2.8c-0.5,0-1-0.1-1.4-0.3C5.5,2.3,5.4,2.1,5.4,1.9s0.2-0.4,0.5-0.6C6.3,1.1,6.7,1,7.3,1z"/>
	</g>
	<g>
		
			<radialGradient id="SVGID_8_" cx="11.7676" cy="6.082" r="2.2911" gradientTransform="matrix(0.9816 -0.1909 0 0.4363 1.039505e-004 3.5425)" gradientUnits="userSpaceOnUse">
			<stop  offset="0" style="stop-color:#FFFFFF;stop-opacity:0.6"/>
			<stop  offset="0.1255" style="stop-color:#FCFCFC;stop-opacity:0.3725"/>
			<stop  offset="0.2745" style="stop-color:#FBFBFB;stop-opacity:7.058824e-002"/>
			<stop  offset="0.5569" style="stop-color:#F9F9F9;stop-opacity:6.274509e-002"/>
			<stop  offset="0.8039" style="stop-color:#FAFAFA;stop-opacity:0"/>
			<stop  offset="1" style="stop-color:#FCFCFC;stop-opacity:0"/>
		</radialGradient>
		<path fill-rule="evenodd" clip-rule="evenodd" fill="url(#SVGID_8_)" d="M12.8,3.2c0.3,0,0.5,0.2,0.5,0.4c0,0.2-0.2,0.4-0.5,0.7
			c-0.3,0.2-0.8,0.4-1.3,0.5c-0.5,0.1-0.9,0.1-1.3,0C10,4.7,9.8,4.5,9.8,4.3c0-0.2,0.2-0.4,0.5-0.6c0.4-0.2,0.8-0.4,1.3-0.4
			C12,3.1,12.5,3.1,12.8,3.2z"/>
	</g>
</g>
</svg>
