<?xml version="1.0" encoding="utf-8"?>
<!-- Generator: Adobe Illustrator 16.0.0, SVG Export Plug-In . SVG Version: 6.00 Build 0)  -->
<!DOCTYPE svg PUBLIC "-//W3C//DTD SVG 1.1//EN" "http://www.w3.org/Graphics/SVG/1.1/DTD/svg11.dtd">
<svg version="1.1" id="Layer_1" xmlns="http://www.w3.org/2000/svg" xmlns:xlink="http://www.w3.org/1999/xlink" x="0px" y="0px"
	 width="23px" height="9px" viewBox="0 0 23 9" enable-background="new 0 0 23 9" xml:space="preserve">
<g>
	<g>
		<g>
			<g>
				
					<linearGradient id="SVGID_1_" gradientUnits="userSpaceOnUse" x1="1.3345" y1="-21.6758" x2="7.2845" y2="-21.6758" gradientTransform="matrix(1.680672e-004 1 -1 1.190474e-002 -2.200845e-004 2.220990e-004)">
					<stop  offset="0" style="stop-color:#8C8C8C"/>
					<stop  offset="7.843138e-002" style="stop-color:#A2A2A2"/>
					<stop  offset="0.1569" style="stop-color:#C8C8C8"/>
					<stop  offset="0.2549" style="stop-color:#939393"/>
					<stop  offset="0.4275" style="stop-color:#656565"/>
					<stop  offset="0.6902" style="stop-color:#2F2F2F"/>
					<stop  offset="1" style="stop-color:#000000"/>
				</linearGradient>
				<path fill-rule="evenodd" clip-rule="evenodd" fill="url(#SVGID_1_)" d="M21,8.5c0.1-3.1,0-5.7-0.3-7.8h1.6
					c0.4,2.6,0.5,5.2,0.1,7.8H21z"/>
				<linearGradient id="SVGID_2_" gradientUnits="userSpaceOnUse" x1="21.6543" y1="4.3843" x2="18.028" y2="5.3546">
					<stop  offset="0" style="stop-color:#6F6F6F"/>
					<stop  offset="1" style="stop-color:#000000"/>
				</linearGradient>
				<path fill-rule="evenodd" clip-rule="evenodd" fill="url(#SVGID_2_)" d="M20.7,0.7C21,2.8,21.1,5.4,21,8.5h0
					c-0.1-0.2-0.3-0.4-0.5-0.8c-0.5-0.8-1.2-1.2-2-1.1c0.4-0.9,0.4-2,0-3.2h0.1C19.6,3,20.3,2.1,20.7,0.7z"/>
				<linearGradient id="SVGID_3_" gradientUnits="userSpaceOnUse" x1="16.2129" y1="4.5249" x2="16.2129" y2="7.4749">
					<stop  offset="0" style="stop-color:#6F6F6F"/>
					<stop  offset="1" style="stop-color:#000000"/>
				</linearGradient>
				<path fill-rule="evenodd" clip-rule="evenodd" fill="url(#SVGID_3_)" d="M18.5,3.5c0.4,1.2,0.4,2.3,0,3.2c-0.1,0-0.3,0-0.4,0
					h-4.4V3.5H18.5z"/>
			</g>
		</g>
		<g>
			
				<radialGradient id="SVGID_4_" cx="19.8242" cy="7.9805" r="2.65" gradientTransform="matrix(0.9811 -0.1934 0 0.4387 -1.597404e-005 4.6331)" gradientUnits="userSpaceOnUse">
				<stop  offset="0" style="stop-color:#FFFFFF;stop-opacity:0.6"/>
				<stop  offset="0.1255" style="stop-color:#FCFCFC;stop-opacity:0.3725"/>
				<stop  offset="0.2745" style="stop-color:#FBFBFB;stop-opacity:7.058824e-002"/>
				<stop  offset="0.5569" style="stop-color:#F9F9F9;stop-opacity:6.274509e-002"/>
				<stop  offset="0.8039" style="stop-color:#FAFAFA;stop-opacity:0"/>
				<stop  offset="1" style="stop-color:#FCFCFC;stop-opacity:0"/>
			</radialGradient>
			<path fill-rule="evenodd" clip-rule="evenodd" fill="url(#SVGID_4_)" d="M20.8,3.4c0.4,0.1,0.6,0.2,0.6,0.5
				c0,0.3-0.2,0.5-0.6,0.9C20.5,4.9,20,5,19.5,5.2c-0.6,0.1-1.1,0.2-1.5,0.1c-0.3-0.2-0.5-0.4-0.5-0.6c0-0.3,0.2-0.5,0.5-0.7
				c0.4-0.3,0.9-0.5,1.5-0.6C20,3.3,20.5,3.3,20.8,3.4z"/>
		</g>
		<g>
			
				<radialGradient id="SVGID_5_" cx="2.4219" cy="-20.7617" r="2.8298" gradientTransform="matrix(6.182838e-002 0.9981 -0.2208 1.766525e-004 16.2158 -1.314623e-002)" gradientUnits="userSpaceOnUse">
				<stop  offset="0" style="stop-color:#FFFFFF"/>
				<stop  offset="0.1255" style="stop-color:#FCFCFC"/>
				<stop  offset="0.2745" style="stop-color:#FBFBFB;stop-opacity:0.302"/>
				<stop  offset="0.5569" style="stop-color:#F9F9F9;stop-opacity:0.102"/>
				<stop  offset="0.8039" style="stop-color:#FAFAFA;stop-opacity:0"/>
				<stop  offset="1" style="stop-color:#FCFCFC;stop-opacity:0"/>
			</radialGradient>
			<path fill-rule="evenodd" clip-rule="evenodd" fill="url(#SVGID_5_)" d="M21.2,0.9c0.1,0.4,0.2,0.9,0.3,1.5c0,0.6,0,1.1,0,1.6
				c-0.1,0.4-0.3,0.6-0.4,0.6c-0.1,0-0.3-0.2-0.3-0.6c-0.1-0.4-0.2-0.9-0.3-1.6c0-0.6,0-1.1,0-1.5c0.1-0.4,0.3-0.6,0.3-0.6
				C20.9,0.2,21,0.4,21.2,0.9z"/>
		</g>
	</g>
	<g>
		<linearGradient id="SVGID_6_" gradientUnits="userSpaceOnUse" x1="0.2998" y1="5.375" x2="17.9248" y2="5.375">
			<stop  offset="0" style="stop-color:#7A7272"/>
			<stop  offset="8.235294e-002" style="stop-color:#716A6A"/>
			<stop  offset="0.1176" style="stop-color:#C6BFB7"/>
			<stop  offset="0.1333" style="stop-color:#C6BFB7"/>
			<stop  offset="0.1608" style="stop-color:#706866"/>
			<stop  offset="0.5216" style="stop-color:#85868B"/>
			<stop  offset="0.549" style="stop-color:#E2EAEF"/>
			<stop  offset="0.6039" style="stop-color:#FAFCFE"/>
			<stop  offset="0.6353" style="stop-color:#9FA2C5"/>
			<stop  offset="0.6667" style="stop-color:#9C9CA5"/>
			<stop  offset="0.8235" style="stop-color:#929295"/>
			<stop  offset="0.8627" style="stop-color:#7D7A7A"/>
			<stop  offset="0.902" style="stop-color:#8F8E8A"/>
			<stop  offset="1" style="stop-color:#868583"/>
		</linearGradient>
		<polygon fill-rule="evenodd" clip-rule="evenodd" fill="url(#SVGID_6_)" points="17.9,2.8 17.9,8.7 0.3,8.7 0.3,3 0.6,2.1 
			17.5,2.1 		"/>
	</g>
</g>
</svg>
