<?xml version="1.0" encoding="utf-8"?>
<!-- Generator: Adobe Illustrator 16.0.0, SVG Export Plug-In . SVG Version: 6.00 Build 0)  -->
<!DOCTYPE svg PUBLIC "-//W3C//DTD SVG 1.1//EN" "http://www.w3.org/Graphics/SVG/1.1/DTD/svg11.dtd">
<svg version="1.1" id="Layer_1" xmlns="http://www.w3.org/2000/svg" xmlns:xlink="http://www.w3.org/1999/xlink" x="0px" y="0px"
	 width="20px" height="8px" viewBox="0 0 20 8" enable-background="new 0 0 20 8" xml:space="preserve">
<g>
	<g>
		<g>
			
				<linearGradient id="SVGID_1_" gradientUnits="userSpaceOnUse" x1="1.0747" y1="-18.9697" x2="5.4497" y2="-18.9697" gradientTransform="matrix(2.285714e-004 1 -1 1.639338e-002 3.529043e-005 -2.866033e-004)">
				<stop  offset="0" style="stop-color:#8C8C8C"/>
				<stop  offset="7.843138e-002" style="stop-color:#A2A2A2"/>
				<stop  offset="0.1569" style="stop-color:#C8C8C8"/>
				<stop  offset="0.2549" style="stop-color:#939393"/>
				<stop  offset="0.4275" style="stop-color:#656565"/>
				<stop  offset="0.6902" style="stop-color:#2F2F2F"/>
				<stop  offset="1" style="stop-color:#000000"/>
			</linearGradient>
			<path fill-rule="evenodd" clip-rule="evenodd" fill="url(#SVGID_1_)" d="M18.5,6.3c0.4-2,0.3-4-0.3-5.8c0.6-0.4,1-0.3,1.1,0.3
				c0.6,2.2,0.5,4.1-0.1,5.9C18.9,6.7,18.7,6.6,18.5,6.3z"/>
			<linearGradient id="SVGID_2_" gradientUnits="userSpaceOnUse" x1="18.959" y1="3.2329" x2="16.262" y2="3.9446">
				<stop  offset="0" style="stop-color:#6F6F6F"/>
				<stop  offset="1" style="stop-color:#000000"/>
			</linearGradient>
			<path fill-rule="evenodd" clip-rule="evenodd" fill="url(#SVGID_2_)" d="M18.2,0.5c0.5,1.8,0.6,3.8,0.3,5.8
				c-0.1-0.1-0.3-0.3-0.4-0.5c-0.4-0.6-0.9-0.9-1.5-0.9c0.3-0.7,0.3-1.5,0-2.4h0.2C17.4,2.3,17.9,1.6,18.2,0.5z"/>
			<linearGradient id="SVGID_3_" gradientUnits="userSpaceOnUse" x1="14.9004" y1="3.3125" x2="14.9004" y2="5.4875">
				<stop  offset="0" style="stop-color:#6F6F6F"/>
				<stop  offset="1" style="stop-color:#000000"/>
			</linearGradient>
			<path fill-rule="evenodd" clip-rule="evenodd" fill="url(#SVGID_3_)" d="M16.5,2.5c0.3,0.9,0.3,1.7,0,2.4c-0.1,0-0.1,0-0.3,0H13
				V2.5H16.5z"/>
		</g>
	</g>
	<g>
		<g>
			<linearGradient id="SVGID_4_" gradientUnits="userSpaceOnUse" x1="0.2998" y1="1.0996" x2="15.5996" y2="1.0996">
				<stop  offset="0" style="stop-color:#939393"/>
				<stop  offset="1" style="stop-color:#5E5E5E"/>
			</linearGradient>
			<path fill-rule="evenodd" clip-rule="evenodd" fill="url(#SVGID_4_)" d="M0.3,1.2V1c0.2-0.2,0.9-0.4,2.2-0.5
				c0.7-0.1,1.4-0.1,2.3-0.1v0.8c2.2,0.4,4.3,0.4,6.3,0V0.3c0.8,0,1.6,0.1,2.3,0.2c1.5,0.1,2.3,0.3,2.3,0.6c0,0.2-0.8,0.4-2.3,0.5
				C11.8,1.8,10,1.9,8,1.9c-0.3,0-0.6,0-0.9,0c-1.8,0-3.3-0.1-4.6-0.3C1.2,1.5,0.5,1.4,0.3,1.2z"/>
			<linearGradient id="SVGID_5_" gradientUnits="userSpaceOnUse" x1="0.2998" y1="4.3496" x2="15.5996" y2="4.3496">
				<stop  offset="0" style="stop-color:#111111"/>
				<stop  offset="0.1961" style="stop-color:#515151"/>
				<stop  offset="0.4235" style="stop-color:#555555"/>
				<stop  offset="0.5961" style="stop-color:#999999"/>
				<stop  offset="0.7451" style="stop-color:#515151"/>
				<stop  offset="0.8784" style="stop-color:#A6A6A6"/>
				<stop  offset="1" style="stop-color:#000000"/>
			</linearGradient>
			<path fill-rule="evenodd" clip-rule="evenodd" fill="url(#SVGID_5_)" d="M15.6,1.1v5.6c0,0.2-0.8,0.4-2.3,0.6
				C12,7.5,10.3,7.6,8,7.6c-0.3,0-0.6,0-0.9,0c-1.9,0-3.5-0.1-4.6-0.3C1.2,7.2,0.4,7,0.3,6.8V1.2c0.2,0.2,0.9,0.3,2.2,0.4
				c1.3,0.1,2.8,0.2,4.6,0.3c0.3,0,0.5,0,0.9,0c2.1,0,3.9-0.1,5.4-0.3C14.8,1.5,15.6,1.3,15.6,1.1z"/>
		</g>
	</g>
	<g>
		
			<radialGradient id="SVGID_6_" cx="11.5664" cy="2.4692" r="5.1074" gradientTransform="matrix(0.9985 -5.384335e-002 0 0.2398 -1.412630e-004 1.8807)" gradientUnits="userSpaceOnUse">
			<stop  offset="0" style="stop-color:#FFFFFF"/>
			<stop  offset="0.1255" style="stop-color:#FCFCFC"/>
			<stop  offset="0.2745" style="stop-color:#FBFBFB;stop-opacity:0.302"/>
			<stop  offset="0.5569" style="stop-color:#F9F9F9;stop-opacity:0.102"/>
			<stop  offset="0.8039" style="stop-color:#FAFAFA;stop-opacity:0"/>
			<stop  offset="1" style="stop-color:#FCFCFC;stop-opacity:0"/>
		</radialGradient>
		<path fill-rule="evenodd" clip-rule="evenodd" fill="url(#SVGID_6_)" d="M14.3,1c0.8,0.2,1.2,0.4,1.2,0.6c0,0.2-0.4,0.5-1.2,0.7
			c-0.7,0.2-1.6,0.4-2.8,0.5c-1.1,0-2,0-2.8-0.2C8,2.5,7.6,2.3,7.6,2S8,1.5,8.8,1.3c0.8-0.2,1.7-0.3,2.8-0.4
			C12.7,0.8,13.7,0.9,14.3,1z"/>
	</g>
</g>
</svg>
