<?xml version="1.0" encoding="utf-8"?>
<!-- Generator: Adobe Illustrator 16.0.0, SVG Export Plug-In . SVG Version: 6.00 Build 0)  -->
<!DOCTYPE svg PUBLIC "-//W3C//DTD SVG 1.1//EN" "http://www.w3.org/Graphics/SVG/1.1/DTD/svg11.dtd">
<svg version="1.1" id="Layer_1" xmlns="http://www.w3.org/2000/svg" xmlns:xlink="http://www.w3.org/1999/xlink" x="0px" y="0px"
	 width="7px" height="428px" viewBox="0 0 7 428" enable-background="new 0 0 7 428" xml:space="preserve">
<g>
	<g>
		<g>
			<linearGradient id="SVGID_1_" gradientUnits="userSpaceOnUse" x1="0.1748" y1="46.25" x2="6.7246" y2="46.25">
				<stop  offset="0" style="stop-color:#5E585A"/>
				<stop  offset="0.1647" style="stop-color:#989292"/>
				<stop  offset="0.3451" style="stop-color:#706669"/>
				<stop  offset="0.4784" style="stop-color:#7E747C"/>
				<stop  offset="0.7059" style="stop-color:#FFFFFF"/>
				<stop  offset="1" style="stop-color:#000000"/>
			</linearGradient>
			<path fill-rule="evenodd" clip-rule="evenodd" fill="url(#SVGID_1_)" d="M6.8,79.3H0.3V13.4c0,0,0.2,0,0.6,0
				c0.3-0.1,1.2-0.1,2.6-0.1h3.3v3.6c0-0.2,0-0.4,0-0.6v19.3V79.3z"/>
			<linearGradient id="SVGID_2_" gradientUnits="userSpaceOnUse" x1="0.1748" y1="246.9004" x2="6.7248" y2="246.9004">
				<stop  offset="0" style="stop-color:#5E585A"/>
				<stop  offset="0.1647" style="stop-color:#989292"/>
				<stop  offset="0.3451" style="stop-color:#706669"/>
				<stop  offset="0.4784" style="stop-color:#7E747C"/>
				<stop  offset="0.7059" style="stop-color:#FFFFFF"/>
				<stop  offset="1" style="stop-color:#000000"/>
			</linearGradient>
			<polygon fill-rule="evenodd" clip-rule="evenodd" fill="url(#SVGID_2_)" points="6.8,79.3 6.7,378.3 6.7,414.5 0.1,414.5 
				0.1,378.3 0.3,79.3 			"/>
		</g>
	</g>
	<g>
		<g>
			<g>
				<g>
					
						<linearGradient id="SVGID_3_" gradientUnits="userSpaceOnUse" x1="-51.9688" y1="-419.3784" x2="-47.0295" y2="-419.3784" gradientTransform="matrix(-0.9971 -7.592236e-002 0.1034 -0.995 -4.534423e-004 2.253950e-004)">
						<stop  offset="0.1804" style="stop-color:#7E747C"/>
						<stop  offset="0.3451" style="stop-color:#706669"/>
						<stop  offset="0.4784" style="stop-color:#7E747C"/>
						<stop  offset="0.7725" style="stop-color:#B1ABB1"/>
						<stop  offset="1" style="stop-color:#7F757C"/>
					</linearGradient>
					<path fill-rule="evenodd" clip-rule="evenodd" fill="url(#SVGID_3_)" d="M3.4,427.5v-13.1h3.4v0L5,426.7
						c-0.2,0.2-0.3,0.3-0.4,0.5C4.3,427.4,3.9,427.5,3.4,427.5L3.4,427.5z"/>
					
						<linearGradient id="SVGID_4_" gradientUnits="userSpaceOnUse" x1="28.3945" y1="-419.9849" x2="33.8325" y2="-419.9849" gradientTransform="matrix(-0.9976 6.895986e-002 -8.034919e-002 -0.9968 5.091727e-005 -1.567006e-004)">
						<stop  offset="0" style="stop-color:#898186"/>
						<stop  offset="0.2588" style="stop-color:#827880"/>
						<stop  offset="0.4784" style="stop-color:#7E747B"/>
						<stop  offset="0.6353" style="stop-color:#E4E6E1"/>
						<stop  offset="1" style="stop-color:#000000"/>
					</linearGradient>
					<path fill-rule="evenodd" clip-rule="evenodd" fill="url(#SVGID_4_)" d="M3.4,427.5c-0.4,0-0.8-0.1-1.1-0.4
						c-0.2-0.2-0.3-0.4-0.4-0.6L0,414.2c0,0,0.3,0,0.7,0c0.3,0.1,1.2,0.2,2.6,0.2V427.5z"/>
				</g>
			</g>
			<g>
				<g>
					
						<radialGradient id="SVGID_5_" cx="30.7627" cy="416.1699" r="0.6063" gradientTransform="matrix(0.9895 0.1443 0.6391 -10.3282 -291.7538 4715.1177)" gradientUnits="userSpaceOnUse">
						<stop  offset="0" style="stop-color:#FFFFFF"/>
						<stop  offset="1" style="stop-color:#FDFDFD;stop-opacity:0"/>
					</radialGradient>
					<path fill-rule="evenodd" clip-rule="evenodd" fill="url(#SVGID_5_)" d="M4.5,416h0.3c0-0.6,0.1-1,0.3-1.2c0,0,0,0.1,0,0.1
						c0.1,0.3,0.2,1,0.4,2.1c0.2,2.7-0.2,5.8-1.2,9.5C3.7,423,3.8,419.5,4.5,416z"/>
					
						<radialGradient id="SVGID_6_" cx="3.6001" cy="414.25" r="2.6625" gradientTransform="matrix(1 0 0 -0.8873 0 781.824)" gradientUnits="userSpaceOnUse">
						<stop  offset="0" style="stop-color:#FFFFFF;stop-opacity:0.4706"/>
						<stop  offset="0.7569" style="stop-color:#FFFFFF;stop-opacity:0.3333"/>
						<stop  offset="1" style="stop-color:#FDFDFD;stop-opacity:0"/>
					</radialGradient>
					<path fill-rule="evenodd" clip-rule="evenodd" fill="url(#SVGID_6_)" d="M0.1,414.3l6.4,0.1C5.2,414.8,3,414.8,0.1,414.3z"/>
				</g>
			</g>
		</g>
	</g>
	<g>
		<g>
			<g>
				<g>
					
						<linearGradient id="SVGID_7_" gradientUnits="userSpaceOnUse" x1="-7.75" y1="-7.1001" x2="-2.9104" y2="-7.1001" gradientTransform="matrix(-0.997 7.748654e-002 -0.101 -0.9952 -3.979877e-004 1.001060e-004)">
						<stop  offset="0.1804" style="stop-color:#7E747C"/>
						<stop  offset="0.3451" style="stop-color:#706669"/>
						<stop  offset="0.4784" style="stop-color:#7E747C"/>
						<stop  offset="0.7725" style="stop-color:#B1ABB1"/>
						<stop  offset="1" style="stop-color:#7F757C"/>
					</linearGradient>
					<path fill-rule="evenodd" clip-rule="evenodd" fill="url(#SVGID_7_)" d="M3.5,13.3V0.1h0c0.5,0,0.9,0.1,1.2,0.4
						C4.8,0.6,4.9,0.8,5,1l1.7,12.3v0H3.5z"/>
					<linearGradient id="SVGID_8_" gradientUnits="userSpaceOnUse" x1="5.4521" y1="7.0991" x2="0.1536" y2="6.7048">
						<stop  offset="0" style="stop-color:#898186"/>
						<stop  offset="0.2588" style="stop-color:#827880"/>
						<stop  offset="0.4784" style="stop-color:#7E747B"/>
						<stop  offset="0.6353" style="stop-color:#E4E6E1"/>
						<stop  offset="1" style="stop-color:#000000"/>
					</linearGradient>
					<path fill-rule="evenodd" clip-rule="evenodd" fill="url(#SVGID_8_)" d="M3.5,0.1v13.1c-1.4,0-2.3,0.1-2.6,0.2
						c-0.4,0.1-0.6,0.1-0.6,0L2,1.1c0.1-0.2,0.2-0.4,0.4-0.6C2.7,0.3,3,0.1,3.5,0.1z"/>
				</g>
			</g>
			<g>
				<g>
					
						<radialGradient id="SVGID_9_" cx="4.373" cy="7.0796" r="0.594" gradientTransform="matrix(0.9891 -0.1473 0.6313 10.5433 -4.0447 -67.548)" gradientUnits="userSpaceOnUse">
						<stop  offset="0" style="stop-color:#FFFFFF"/>
						<stop  offset="1" style="stop-color:#FDFDFD;stop-opacity:0"/>
					</radialGradient>
					<path fill-rule="evenodd" clip-rule="evenodd" fill="url(#SVGID_9_)" d="M4.3,1.1c1,3.7,1.3,6.8,1.1,9.5
						c-0.1,1.1-0.3,1.9-0.4,2.1c0,0,0,0,0,0.1c-0.1-0.2-0.2-0.6-0.2-1.2H4.6C3.9,8.2,3.8,4.7,4.3,1.1z"/>
					
						<radialGradient id="SVGID_10_" cx="3.7002" cy="13.4502" r="2.6" gradientTransform="matrix(1 0 0 0.9087 0 1.2286)" gradientUnits="userSpaceOnUse">
						<stop  offset="0" style="stop-color:#FFFFFF;stop-opacity:0.4706"/>
						<stop  offset="0.7569" style="stop-color:#FFFFFF;stop-opacity:0.3333"/>
						<stop  offset="1" style="stop-color:#FDFDFD;stop-opacity:0"/>
					</radialGradient>
					<path fill-rule="evenodd" clip-rule="evenodd" fill="url(#SVGID_10_)" d="M6.6,13.4l-6.3,0.1C3.2,12.9,5.3,12.9,6.6,13.4z"/>
				</g>
			</g>
		</g>
	</g>
</g>
</svg>
