<?xml version="1.0" encoding="utf-8"?>
<!-- Generator: Adobe Illustrator 16.0.0, SVG Export Plug-In . SVG Version: 6.00 Build 0)  -->
<!DOCTYPE svg PUBLIC "-//W3C//DTD SVG 1.1//EN" "http://www.w3.org/Graphics/SVG/1.1/DTD/svg11.dtd">
<svg version="1.1" id="Layer_1" xmlns="http://www.w3.org/2000/svg" xmlns:xlink="http://www.w3.org/1999/xlink" x="0px" y="0px"
	 width="18px" height="31px" viewBox="0 0 18 31" enable-background="new 0 0 18 31" xml:space="preserve">
<g>
	<g>
		<g>
			<path fill-rule="evenodd" clip-rule="evenodd" fill="#746244" d="M0.4,1.3c0-0.3,0.8-0.6,2.5-0.8c0.8-0.1,1.8-0.2,3-0.3v0.9
				c2,0.6,4.2,0.6,6.5,0V0.3c1,0,1.9,0.1,2.7,0.3c1.7,0.2,2.6,0.5,2.6,0.8c0,0.3-0.9,0.6-2.6,0.9C13.4,2.4,11.4,2.5,9,2.5
				c-2.4,0-4.4-0.1-6.1-0.4C1.2,1.9,0.4,1.6,0.4,1.3z"/>
			<linearGradient id="SVGID_1_" gradientUnits="userSpaceOnUse" x1="0.375" y1="15.9497" x2="17.6255" y2="15.9497">
				<stop  offset="0" style="stop-color:#4D312D"/>
				<stop  offset="0.4235" style="stop-color:#6F645E"/>
				<stop  offset="0.7569" style="stop-color:#6A544C"/>
				<stop  offset="1" style="stop-color:#7E713D"/>
			</linearGradient>
			<path fill-rule="evenodd" clip-rule="evenodd" fill="url(#SVGID_1_)" d="M17.7,1.3v27c0,0.6-0.9,1.2-2.6,1.6
				c-1.7,0.5-3.7,0.8-6.1,0.8c-2.4,0-4.4-0.3-6.1-0.8c-1.7-0.4-2.5-1-2.5-1.6v-27c0,0.3,0.8,0.6,2.5,0.9C4.6,2.4,6.6,2.5,9,2.5
				c2.4,0,4.4-0.1,6.1-0.4C16.8,1.9,17.6,1.6,17.7,1.3z"/>
		</g>
	</g>
	<g>
		
			<radialGradient id="SVGID_2_" cx="7.8999" cy="8.5498" r="0.875" gradientTransform="matrix(1 0 0 12.7 0 -100.0327)" gradientUnits="userSpaceOnUse">
			<stop  offset="0" style="stop-color:#FFFFFF"/>
			<stop  offset="1" style="stop-color:#FFFFFF;stop-opacity:0"/>
		</radialGradient>
		<path fill-rule="evenodd" clip-rule="evenodd" fill="url(#SVGID_2_)" d="M6.6,3c0.5-0.3,1.2-0.3,2.1,0c0.4,6,0.3,11.8-0.4,17.6
			c0,0.1,0,0.2-0.1,0.4C8.1,21,8,21,7.9,21c-0.1,0-0.3,0-0.4-0.1c-0.1-0.1-0.1-0.3-0.1-0.4C6.2,14.6,6,8.8,6.6,3z"/>
	</g>
</g>
</svg>
